<svg width="200" height="200" viewBox="45 15 130 170" xmlns="http://www.w3.org/2000/svg">
  <!-- Background shape (original irregular polygon, unchanged) -->
  <path d="M50 30 L150 20 L170 100 L140 170 L60 180 Z" fill="url(#grad1)" />
  
  <!-- Speech bubble 1 (translation symbol, repositioned) -->
  <path d="M80 60 C90 50, 110 50, 120 60 C130 70, 130 90, 120 100 C110 110, 90 110, 80 100 C70 90, 70 70, 80 60 Z" fill="#ffffff" fill-opacity="0.8" />
  <path d="M120 100 L130 120 L110 110 Z" fill="#ffffff" fill-opacity="0.8" />
  
  <!-- Speech bubble 2 (overlapping, mirrored, repositioned) -->
  <path d="M100 80 C110 70, 130 70, 140 80 C150 90, 150 110, 140 120 C130 130, 110 130, 100 120 C90 110, 90 90, 100 80 Z" fill="#ffffff" fill-opacity="0.6" />
  <path d="M100 120 L90 140 L110 130 Z" fill="#ffffff" fill-opacity="0.6" />
  
  <!-- AI circuit line (repositioned) -->
  <path d="M70 50 H90 V70 H110 V90" fill="none" stroke="#2c3e50" stroke-width="3" stroke-linecap="round" />
  
  <!-- Gradient definition -->
  <defs>
    <linearGradient id="grad1" x1="0%" y1="0%" x2="100%" y2="100%">
      <stop offset="0%" style="stop-color:#3498db;stop-opacity:1" />
      <stop offset="100%" style="stop-color:#2980b9;stop-opacity:1" />
    </linearGradient>
  </defs>
</svg>