<svg width="128" height="128" viewBox="0 0 128 128" xmlns="http://www.w3.org/2000/svg">
  <!-- Background gradient -->
  <defs>
    <linearGradient id="bgGradient" x1="0%" y1="0%" x2="100%" y2="100%">
      <stop offset="0%" style="stop-color:#667eea;stop-opacity:1" />
      <stop offset="100%" style="stop-color:#764ba2;stop-opacity:1" />
    </linearGradient>
    <linearGradient id="textGradient" x1="0%" y1="0%" x2="100%" y2="0%">
      <stop offset="0%" style="stop-color:#ffffff;stop-opacity:1" />
      <stop offset="60%" style="stop-color:#f0f0f0;stop-opacity:1" />
      <stop offset="100%" style="stop-color:#e0e0e0;stop-opacity:1" />
    </linearGradient>
  </defs>
  
  <!-- Main background -->
  <rect width="128" height="128" rx="24" fill="url(#bgGradient)" />
  
  <!-- AI Brain/Globe symbol -->
  <g transform="translate(64, 64)">
    <!-- Central globe/orb -->
    <circle cx="0" cy="0" r="32" fill="#4a5568" opacity="0.8" />
    
    <!-- Globe meridians -->
    <path d="M 0 -32 Q 16 -16 16 0 Q 16 16 0 32 Q -16 16 -16 0 Q -16 -16 0 -32 Z" 
          fill="none" stroke="#a0aec0" stroke-width="2" opacity="0.6"/>
    <path d="M -32 0 Q -16 16 0 16 Q 16 16 32 0 Q 16 -16 0 -16 Q -16 -16 -32 0 Z" 
          fill="none" stroke="#a0aec0" stroke-width="2" opacity="0.6"/>
    
    <!-- Neural connections -->
    <g stroke="#ffffff" stroke-width="2" opacity="0.9">
      <line x1="-20" y1="-20" x2="20" y2="20" />
      <line x1="20" y1="-20" x2="-20" y2="20" />
      <circle cx="-15" cy="-15" r="2" fill="#ffffff" />
      <circle cx="15" cy="15" r="2" fill="#ffffff" />
      <circle cx="15" cy="-15" r="2" fill="#ffffff" />
      <circle cx="-15" cy="15" r="2" fill="#ffffff" />
    </g>
    
    <!-- Translation waves -->
    <g opacity="0.7">
      <path d="M -25 -10 Q -15 0 -25 10" stroke="#48bb78" stroke-width="3" fill="none" />
      <path d="M -20 -15 Q -10 0 -20 15" stroke="#48bb78" stroke-width="2" fill="none" />
      <path d="M 25 -10 Q 15 0 25 10" stroke="#38a169" stroke-width="3" fill="none" />
      <path d="M 20 -15 Q 10 0 20 15" stroke="#38a169" stroke-width="2" fill="none" />
    </g>
    
    <!-- AI sparkle effect -->
    <g transform="translate(0, -25)">
      <polygon points="0,0 4,-4 8,0 4,2" fill="#ffd700" />
      <polygon points="0,0 -4,-4 0,-8 -2,0" fill="#ffd700" opacity="0.8" />
      <circle cx="0" cy="0" r="1" fill="#ffffff" />
    </g>
  </g>
  
  <!-- Subtle shadow/glow -->
  <rect width="128" height="128" rx="24" fill="none" 
        stroke="#000000" stroke-width="0" opacity="0.1"/>
  
  <!-- Icon border -->
  <rect x="4" y="4" width="120" height="120" rx="20" 
        fill="none" stroke="url(#textGradient)" stroke-width="2" />
</svg>
